<svg height="100.5pt" viewBox="-4 0 448 448" width="100.5pt" xmlns="http://www.w3.org/2000/svg"><path d="m273.128906 144c3.019532 2.488281 3.796875 6.789062 1.839844 10.175781l-3.375 5.824219h20.449219v-32h-38.3125zm0 0"/><path d="m253.730469 112h38.3125v-32h-20.449219l3.375 5.855469c1.9375 3.378906 1.160156 7.660156-1.839844 10.144531zm0 0"/><path d="m135.675781 129.550781-.050781.089844c-.351562.8125-.835938 1.558594-1.4375 2.207031-.140625.164063-.285156.316406-.441406.464844-.128906.152344-.265625.300781-.40625.441406l-23.402344 19.246094 9.222656 16 28.410156-10.648438c2.550782-.953124 5.410157-.546874 7.589844 1.082032 3.011719 2.269531 6.28125 4.175781 9.738282 5.679687 2.503906 1.074219 4.289062 3.351563 4.734374 6.039063l4.96875 29.847656h18.457032l4.976562-29.855469c.445313-2.6875 2.230469-4.964843 4.734375-6.039062 3.457031-1.507813 6.722657-3.414063 9.738281-5.679688 2.179688-1.628906 5.035157-2.035156 7.582032-1.082031l28.417968 10.65625 9.214844-16-23.402344-19.257812c-2.101562-1.730469-3.179687-4.417969-2.855468-7.125.492187-3.734376.492187-7.515626 0-11.25-.324219-2.707032.753906-5.394532 2.855468-7.128907l23.402344-19.238281-9.214844-16-28.417968 10.648438c-2.546875.953124-5.402344.546874-7.582032-1.082032-3.015624-2.265625-6.28125-4.171875-9.738281-5.679687-2.503906-1.074219-4.289062-3.351563-4.734375-6.039063l-4.976562-29.847656h-18.449219l-4.96875 29.855469c-.445313 2.6875-2.230469 4.964843-4.734375 6.039062-3.457031 1.503907-6.726562 3.410157-9.734375 5.679688-2.183594 1.628906-5.042969 2.039062-7.59375 1.082031l-28.417969-10.65625-9.222656 16 23.402344 19.257812c2.105468 1.730469 3.183594 4.417969 2.863281 7.125-.492187 3.734376-.492187 7.515626 0 11.25v.550782c0 .183594.054687.175781.054687.273437-.011718.113281-.035156.230469-.0625.34375-.007812.941407-.183593 1.871094-.519531 2.75zm48.15625-41.550781c17.675781 0 32 14.328125 32 32s-14.324219 32-32 32c-17.671875 0-32-14.328125-32-32s14.328125-32 32-32zm0 0"/><path d="m188.042969 407.28125 16-18.289062v-116.992188h-48v112c0 2.121094-.84375 4.15625-2.34375 5.65625l-58.34375 58.34375h57.054687l19.632813-22.398438v-57.601562h16zm-16-103.28125h16v16h-16zm0 48v-16h16v16zm0 0"/><path d="m207.722656 30.679688 5.40625 32.433593c1.777344.925781 3.546875 1.957031 5.28125 3.085938l30.824219-11.542969c3.660156-1.375 7.777344.101562 9.734375 3.488281l3.386719 5.855469h29.6875c-.003907-1.667969.519531-3.292969 1.496093-4.648438l25.246094-35.351562h-50.742187c-4.417969 0-8-3.582031-8-8v-16h-64v24h3.789062c3.910157 0 7.246094 2.824219 7.890625 6.679688zm0 0"/><path d="m199.832031 120c0 8.835938-7.160156 16-16 16-8.835937 0-16-7.164062-16-16s7.164063-16 16-16c8.839844 0 16 7.164062 16 16zm0 0"/><path d="m412.730469 179.246094c-1.34375-3.023438-.683594-6.5625 1.65625-8.902344 8.773437-8.726562 13.691406-20.601562 13.65625-32.976562.15625-46.882813-26.355469-89.777344-68.359375-110.597657l-17.105469-8.5625-34.535156 48.351563v90.777344l22.398437 29.863281c1.039063 1.386719 1.601563 3.070312 1.601563 4.800781v32c0 3.273438-1.992188 6.21875-5.03125 7.433594l-34.96875 13.980468v54.144532c3.726562 2.3125 7.503906 4.632812 11.269531 6.921875h.050781l.039063.039062c17.070312 11.105469 34.917968 20.96875 53.398437 29.519531l39.242188-.039062v-40c0-2.121094.84375-4.15625 2.34375-5.65625l3.085937-3.085938c-13.292968-1.914062-25.605468-8.089843-35.085937-17.601562-3.03125-3.140625-2.988281-8.128906.097656-11.214844 3.085937-3.085937 8.074219-3.128906 11.214844-.097656 8.722656 8.773438 20.59375 13.691406 32.964843 13.65625h1.378907v-24c0-4.417969 3.582031-8 8-8h19.6875zm-72.6875-19.246094h-16v-16h16zm0-32h-16v-16h16zm0-32h-16v-32h16zm64 80c0 4.417969-3.582031 8-8 8h-24c-4.417969 0-8-3.582031-8-8s3.582031-8 8-8h16v-16c0-4.417969 3.582031-8 8-8s8 3.582031 8 8zm0 0"/><path d="m316.042969 208v-13.335938l-14.265625-19.015624c-.5625.1875-1.144532.304687-1.734375.351562h-37.6875l-3.386719 5.855469c-1.957031 3.386719-6.074219 4.863281-9.734375 3.488281l-30.792969-11.542969c-1.734375 1.128907-3.503906 2.160157-5.28125 3.085938l-5.40625 32.433593c-.644531 3.855469-3.980468 6.679688-7.886718 6.679688h-11.824219v40h88v-16c-.003907-3.273438 1.992187-6.21875 5.03125-7.433594l21.421875-8.566406h-18.453125v-16zm-80 16h-16v-16h16zm32 0h-16v-16h16zm0 0"/><path d="m268.042969 400v-24h-16v72h60.6875l-42.34375-42.34375c-1.5-1.5-2.34375-3.535156-2.34375-5.65625zm0 0"/><path d="m252.042969 272v44.6875l22.398437 22.402344 13.839844-23.066406c-2.816406-1.734376-5.511719-3.382813-8.496094-5.253907-2.328125-1.464843-3.742187-4.019531-3.742187-6.769531v-32zm0 0"/><path d="m220.042969 392c0 1.9375-.703125 3.8125-1.976563 5.273438l-30.023437 34.3125v.414062h-.367188l-14.035156 16h62.402344v-72h-16zm0 0"/><path d="m268.042969 355.3125-29.65625-29.65625c-1.5-1.5-2.34375-3.535156-2.34375-5.65625v-48h-16v88h48zm0 0"/><path d="m116.042969 232c2.136719 0 4.183593-.855469 5.6875-2.375 1.503906-1.519531 2.335937-3.574219 2.3125-5.714844l-.425781-40-16 .179688.335937 31.910156h-45.597656c-3.789063-8.679688-13.148438-13.511719-22.417969-11.578125s-15.914062 10.105469-15.914062 19.578125 6.644531 17.644531 15.914062 19.578125 18.628906-2.898437 22.417969-11.578125zm0 0"/><path d="m36.042969 42.3125v37.6875c0 4.417969 3.582031 8 8 8h48v-16h-40v-29.6875c8.679687-3.789062 13.511719-13.144531 11.578125-22.417969-1.9375-9.269531-10.109375-15.914062-19.578125-15.914062-9.472657 0-17.644531 6.644531-19.578125 15.914062-1.9375 9.273438 2.898437 18.628907 11.578125 22.417969zm0 0"/><path d="m37.640625 137.398438 70.5625-1.398438-.320313-16-69.015624 1.367188c-3.144532-8.929688-12.117188-14.433594-21.5-13.1875-9.382813 1.246093-16.609376 8.902343-17.3125005 18.339843-.7031255 9.441407 5.3085935 18.082031 14.4023435 20.703125 9.097657 2.625 18.785157-1.488281 23.21875-9.855468zm0 0"/></svg>